# xmcd CD database file
#
# Track frame offsets:
#	150
#	15573
#	30146
#	49975
#	64707
#	79773
#	93035
#	109212
#	126655
#	136951
#	149438
#	160950
#	174951
#	191011
#	206431
#	216132
#	232121
#	247784
#
# Disc length: 3526 seconds
#
# Revision: 1
# Processed by: cddbd v1.5.2PL0 Copyright (c) Steve Scherf et al.
# Submitted via: CDex 1.51
#
DISCID=f40dc412
DTITLE=Django Reinhardt - Kind Of Reinhardt [CD5] - Italian Masters Vol.2
DYEAR=2009
DGENRE=Jazz
TTITLE0=Boogie Woogie (Ekyan)
TTITLE1=Blue Lou (Sampson/Mils)
TTITLE2=Anniversary Song (Jolson/Chaplin)
TTITLE3=The Man I Love (Gershwin)
TTITLE4=Ou Est Tu Mon Amour (Stern/Lemarchand)
TTITLE5=September Song (Weill/Anderson)
TTITLE6=I Saw Stars (Sigler/Goodhart/Hoffman)
TTITLE7=I Can't Get Started (Gershwin)
TTITLE8=Micro (Reinhardt)
TTITLE9=Time On My hands (Yourmans/Gordon/Adamson)
TTITLE10=St James Infirmary (Handy)
TTITLE11=Tisket A Tasket (Feldman/Fitzgerald)
TTITLE12=Black Night (Reinhardt)
TTITLE13=For Sentimental Reasons (Best/Watson)
TTITLE14=Improvisation No 4 (Reinhardt)
TTITLE15=Nature Boy (Abbey)
TTITLE16=Stormy Weather (Arlen/Koehler)
TTITLE17=To Each His Own (Livingston/Evans)
EXTD=YEAR: 2009
EXTT0=
EXTT1=
EXTT2=
EXTT3=
EXTT4=
EXTT5=
EXTT6=
EXTT7=
EXTT8=
EXTT9=
EXTT10=
EXTT11=
EXTT12=
EXTT13=
EXTT14=
EXTT15=
EXTT16=
EXTT17=
PLAYORDER=
